# xmcd CD database file
#
# Track frame offsets:
#	150
#	14948
#	36086
#	50886
#	71971
#	84301
#	100810
#	115756
#	129413
#	149182
#	165671
#	185250
#	201513
#	218919
#	236839
#
# Disc length: 3410 seconds
#
# Revision: 7
# Processed by: cddbd v1.5.2PL0 Copyright (c) Steve Scherf et al.
# Submitted via: jetAudio 7
#
DISCID=ec0d500f
DTITLE=Various Artist - Die goldene Schlagerbox  - Die romantischen Schmuseson
DTITLE=gs  CD 3
DYEAR=1998
DGENRE=Schlager
TTITLE0=Howard Carpendale - Tür an Tür mit Alice
TTITLE1=Christian Anders - Es fährt ein Zug nach nirgendwo
TTITLE2=Bernd Clüver - Der Junge mit der Mundharmonika
TTITLE3=David Hasselhoff - Du
TTITLE4=Peggy March - Mit 17 hat man noch Träume
TTITLE5=Bernd Clüver and Marion Maerz - Schau mal herein
TTITLE6=Lena Valaitis - Ein schöner Tag
TTITLE7=Severine - Mach die Augen zu und wünsch Dir einen Traum
TTITLE8=Rex Gildo - Wenn ich je Deine Liebe verlier
TTITLE9=Costa Cordalis - Dich berühren
TTITLE10=Bernhard Brink - Du entschuldige, ich kenn´ Dich
TTITLE11=Hoffmann and Hoffmann - Alles was ich brauche bist Du
TTITLE12=Andreas Martin - Solo Tu (Du allein)
TTITLE13=Michael Holm - Tränen lügen nicht
TTITLE14=Udo Jürgens - In den Armen der Nacht
EXTD=
EXTT0=
EXTT1=
EXTT2=
EXTT3=
EXTT4=
EXTT5=
EXTT6=
EXTT7=
EXTT8=
EXTT9=
EXTT10=
EXTT11=
EXTT12=
EXTT13=
EXTT14=
PLAYORDER=
